<svg xmlns="http://www.w3.org/2000/svg" version="1.1" viewBox="-5.0 -10.0 110.0 110.0">
 <path d="m87.832 37.25c-1.3633-1.8242-3.5117-2.8906-5.7891-2.875h-5.293l-11.582-19.332c-0.92969-1.4023-2.7969-1.8203-4.2344-0.94531-1.4336 0.875-1.918 2.7266-1.1016 4.1953l9.668 16.082h-39l9.668-16.082c0.46875-0.71094 0.62891-1.5781 0.44531-2.4062-0.1875-0.82812-0.69922-1.5469-1.4258-1.9883-0.72656-0.44141-1.5977-0.57031-2.4219-0.35547-0.82031 0.21484-1.5195 0.75781-1.9336 1.5l-11.582 19.332h-5.293c-2.2734-0.003906-4.418 1.0547-5.7969 2.8633-1.3828 1.8047-1.8398 4.1523-1.2422 6.3438l10.25 37.5c0.84766 3.1719 3.7188 5.375 7 5.375h43.664c3.2812 0 6.1523-2.2031 7-5.375l10.25-37.5c0.60547-2.1875 0.14453-4.5352-1.25-6.332zm-43.039 29.418c0 1.7227-1.4023 3.125-3.125 3.125-1.7266 0-3.125-1.4023-3.125-3.125v-12.5c0-1.7266 1.3984-3.125 3.125-3.125 1.7227 0 3.125 1.3984 3.125 3.125zm16.668 0h-0.003907c0 1.7227-1.3984 3.125-3.125 3.125-1.7227 0-3.125-1.4023-3.125-3.125v-12.5c0-1.7266 1.4023-3.125 3.125-3.125 1.7266 0 3.125 1.3984 3.125 3.125z"/>
</svg>